<?xml version="1.0" encoding="UTF-8"?>
<svg xmlns="http://www.w3.org/2000/svg" xmlns:xlink="http://www.w3.org/1999/xlink" width="165pt" height="193pt" viewBox="0 0 165 193" version="1.1">
<g id="surface1">
<path style="fill-rule:nonzero;fill:rgb(100%,100%,100%);fill-opacity:1;stroke-width:1;stroke-linecap:round;stroke-linejoin:round;stroke:rgb(0%,0%,0%);stroke-opacity:1;stroke-miterlimit:10;" d="M 269.4 299.2 L 328.2 299.2 L 328.2 319.2 L 269.4 319.2 Z M 269.4 299.2 " transform="matrix(1.25,0,0,1.25,-335,-207.5)"/>
<path style=" stroke:none;fill-rule:nonzero;fill:rgb(0%,0%,0%);fill-opacity:1;" d="M 20.496094 183.375 L 20.496094 175.328125 L 21.589844 175.328125 L 25.808594 181.636719 L 25.808594 175.328125 L 26.84375 175.328125 L 26.84375 183.375 L 25.75 183.375 L 21.511719 177.046875 L 21.511719 183.375 Z M 20.496094 183.375 "/>
<path style=" stroke:none;fill-rule:nonzero;fill:rgb(0%,0%,0%);fill-opacity:1;" d="M 28.132812 180.464844 C 28.132812 179.386719 28.433594 178.585938 29.03125 178.0625 C 29.539062 177.632812 30.152344 177.417969 30.867188 177.417969 C 31.675781 177.417969 32.332031 177.679688 32.839844 178.199219 C 33.347656 178.722656 33.601562 179.445312 33.601562 180.367188 C 33.601562 181.125 33.484375 181.714844 33.25 182.144531 C 33.027344 182.574219 32.703125 182.914062 32.273438 183.160156 C 31.84375 183.394531 31.375 183.511719 30.867188 183.511719 C 30.046875 183.511719 29.382812 183.253906 28.875 182.730469 C 28.378906 182.199219 28.132812 181.441406 28.132812 180.464844 Z M 29.148438 180.464844 C 29.148438 181.207031 29.3125 181.769531 29.636719 182.144531 C 29.960938 182.511719 30.371094 182.691406 30.867188 182.691406 C 31.363281 182.691406 31.773438 182.511719 32.097656 182.144531 C 32.421875 181.769531 32.585938 181.195312 32.585938 180.425781 C 32.585938 179.710938 32.421875 179.164062 32.097656 178.785156 C 31.773438 178.410156 31.363281 178.21875 30.867188 178.21875 C 30.371094 178.21875 29.960938 178.410156 29.636719 178.785156 C 29.3125 179.152344 29.148438 179.710938 29.148438 180.464844 Z M 29.148438 180.464844 "/>
<path style=" stroke:none;fill-rule:nonzero;fill:rgb(0%,0%,0%);fill-opacity:1;" d="M 34.761719 176.460938 L 34.761719 175.328125 L 35.757812 175.328125 L 35.757812 176.460938 Z M 34.761719 183.375 L 34.761719 177.535156 L 35.757812 177.535156 L 35.757812 183.375 Z M 34.761719 183.375 "/>
<path style=" stroke:none;fill-rule:nonzero;fill:rgb(0%,0%,0%);fill-opacity:1;" d="M 36.871094 181.636719 L 37.847656 181.480469 C 37.898438 181.871094 38.046875 182.171875 38.296875 182.378906 C 38.554688 182.589844 38.90625 182.691406 39.351562 182.691406 C 39.804688 182.691406 40.144531 182.601562 40.367188 182.417969 C 40.585938 182.238281 40.699219 182.023438 40.699219 181.773438 C 40.699219 181.539062 40.601562 181.363281 40.40625 181.246094 C 40.261719 181.15625 39.921875 181.039062 39.390625 180.894531 C 38.660156 180.714844 38.152344 180.558594 37.867188 180.425781 C 37.59375 180.296875 37.382812 180.113281 37.242188 179.878906 C 37.097656 179.644531 37.027344 179.386719 37.027344 179.097656 C 37.027344 178.839844 37.085938 178.601562 37.203125 178.375 C 37.320312 178.15625 37.480469 177.964844 37.691406 177.808594 C 37.847656 177.707031 38.054688 177.613281 38.316406 177.535156 C 38.589844 177.457031 38.875 177.417969 39.175781 177.417969 C 39.628906 177.417969 40.027344 177.484375 40.367188 177.613281 C 40.71875 177.746094 40.976562 177.921875 41.148438 178.140625 C 41.316406 178.367188 41.433594 178.664062 41.5 179.039062 L 40.523438 179.175781 C 40.484375 178.878906 40.351562 178.644531 40.132812 178.472656 C 39.921875 178.304688 39.628906 178.21875 39.253906 178.21875 C 38.796875 178.21875 38.472656 178.296875 38.277344 178.453125 C 38.082031 178.601562 37.984375 178.773438 37.984375 178.980469 C 37.984375 179.113281 38.023438 179.226562 38.101562 179.3125 C 38.179688 179.429688 38.308594 179.523438 38.492188 179.585938 C 38.582031 179.625 38.867188 179.710938 39.351562 179.839844 C 40.054688 180.023438 40.542969 180.171875 40.816406 180.289062 C 41.101562 180.40625 41.324219 180.582031 41.480469 180.816406 C 41.636719 181.039062 41.714844 181.320312 41.714844 181.65625 C 41.714844 182 41.617188 182.3125 41.421875 182.59375 C 41.226562 182.882812 40.945312 183.109375 40.582031 183.277344 C 40.230469 183.433594 39.820312 183.511719 39.351562 183.511719 C 38.59375 183.511719 38.015625 183.355469 37.613281 183.042969 C 37.222656 182.71875 36.972656 182.25 36.871094 181.636719 Z M 36.871094 181.636719 "/>
<path style=" stroke:none;fill-rule:nonzero;fill:rgb(0%,0%,0%);fill-opacity:1;" d="M 46.871094 181.5 L 47.90625 181.617188 C 47.734375 182.21875 47.429688 182.6875 46.988281 183.023438 C 46.558594 183.351562 46.003906 183.511719 45.328125 183.511719 C 44.480469 183.511719 43.804688 183.253906 43.296875 182.730469 C 42.800781 182.199219 42.554688 181.457031 42.554688 180.503906 C 42.554688 179.527344 42.808594 178.773438 43.316406 178.238281 C 43.824219 177.691406 44.480469 177.417969 45.289062 177.417969 C 46.070312 177.417969 46.699219 177.6875 47.183594 178.21875 C 47.675781 178.742188 47.925781 179.484375 47.925781 180.445312 C 47.925781 180.515625 47.925781 180.601562 47.925781 180.71875 L 43.570312 180.71875 C 43.609375 181.359375 43.789062 181.847656 44.117188 182.183594 C 44.441406 182.523438 44.851562 182.691406 45.347656 182.691406 C 45.710938 182.691406 46.015625 182.601562 46.265625 182.417969 C 46.523438 182.222656 46.726562 181.921875 46.871094 181.5 Z M 43.628906 179.898438 L 46.890625 179.898438 C 46.851562 179.40625 46.726562 179.035156 46.519531 178.785156 C 46.207031 178.410156 45.796875 178.21875 45.289062 178.21875 C 44.832031 178.21875 44.449219 178.375 44.136719 178.6875 C 43.835938 178.992188 43.667969 179.390625 43.628906 179.898438 Z M 43.628906 179.898438 "/>
<path style=" stroke:none;fill-rule:nonzero;fill:rgb(0%,0%,0%);fill-opacity:1;" d="M 57.230469 177.125 L 57.230469 176.949219 L 52.972656 176.949219 L 52.503906 178.6875 L 52.738281 178.746094 C 53.050781 177.984375 53.324219 177.847656 54.105469 177.847656 L 56.15625 177.847656 L 51.488281 183.433594 L 51.625 183.570312 C 51.878906 183.375 52.074219 183.296875 52.308594 183.296875 C 52.699219 183.296875 53.167969 183.492188 53.890625 183.921875 C 54.632812 184.390625 55.140625 184.585938 55.570312 184.585938 C 56.410156 184.585938 56.976562 184.058594 56.976562 183.453125 C 56.976562 183.121094 56.761719 182.886719 56.449219 182.886719 C 56.214844 182.886719 55.960938 183.140625 55.960938 183.414062 C 55.960938 183.53125 55.980469 183.648438 56.078125 183.824219 C 56.117188 183.921875 56.15625 183.980469 56.15625 184.058594 C 56.15625 184.175781 55.980469 184.273438 55.746094 184.273438 C 55.375 184.273438 55.082031 184.097656 54.691406 183.53125 C 54.085938 182.632812 53.753906 182.476562 52.894531 182.28125 Z M 57.230469 177.125 "/>
<path style="fill-rule:nonzero;fill:rgb(69.803922%,85.098039%,100%);fill-opacity:1;stroke-width:1;stroke-linecap:round;stroke-linejoin:round;stroke:rgb(0%,0%,0%);stroke-opacity:1;stroke-miterlimit:10;" d="M 269.4 266 L 328.2 266 L 328.2 286 L 269.4 286 Z M 269.4 266 " transform="matrix(1.25,0,0,1.25,-335,-207.5)"/>
<path style=" stroke:none;fill-rule:nonzero;fill:rgb(0%,0%,0%);fill-opacity:1;" d="M 17.800781 137.460938 L 17.800781 136.523438 L 21.21875 136.523438 L 21.21875 139.511719 C 20.699219 139.929688 20.15625 140.242188 19.597656 140.449219 C 19.039062 140.65625 18.464844 140.761719 17.878906 140.761719 C 17.097656 140.761719 16.382812 140.59375 15.730469 140.253906 C 15.078125 139.917969 14.589844 139.429688 14.265625 138.789062 C 13.941406 138.15625 13.777344 137.4375 13.777344 136.640625 C 13.777344 135.859375 13.941406 135.132812 14.265625 134.453125 C 14.589844 133.765625 15.058594 133.257812 15.671875 132.929688 C 16.296875 132.609375 17.007812 132.441406 17.800781 132.441406 C 18.386719 132.441406 18.914062 132.539062 19.382812 132.734375 C 19.851562 132.921875 20.214844 133.179688 20.476562 133.515625 C 20.75 133.84375 20.957031 134.277344 21.101562 134.824219 L 20.144531 135.078125 C 20.015625 134.679688 19.859375 134.355469 19.675781 134.121094 C 19.507812 133.886719 19.253906 133.703125 18.914062 133.554688 C 18.589844 133.414062 18.21875 133.339844 17.800781 133.339844 C 17.320312 133.339844 16.894531 133.417969 16.53125 133.574219 C 16.179688 133.71875 15.894531 133.914062 15.671875 134.160156 C 15.464844 134.394531 15.300781 134.65625 15.183594 134.941406 C 14.976562 135.449219 14.871094 135.992188 14.871094 136.5625 C 14.871094 137.296875 14.996094 137.898438 15.242188 138.378906 C 15.488281 138.863281 15.847656 139.21875 16.316406 139.453125 C 16.785156 139.6875 17.285156 139.804688 17.820312 139.804688 C 18.289062 139.804688 18.738281 139.722656 19.167969 139.550781 C 19.609375 139.371094 19.949219 139.175781 20.183594 138.964844 L 20.183594 137.460938 Z M 17.800781 137.460938 "/>
<path style=" stroke:none;fill-rule:nonzero;fill:rgb(0%,0%,0%);fill-opacity:1;" d="M 26.652344 138.75 L 27.6875 138.867188 C 27.515625 139.46875 27.207031 139.9375 26.769531 140.273438 C 26.339844 140.601562 25.78125 140.761719 25.109375 140.761719 C 24.257812 140.761719 23.585938 140.503906 23.078125 139.980469 C 22.578125 139.449219 22.335938 138.707031 22.335938 137.753906 C 22.335938 136.777344 22.589844 136.023438 23.097656 135.488281 C 23.605469 134.941406 24.257812 134.667969 25.070312 134.667969 C 25.851562 134.667969 26.480469 134.9375 26.964844 135.46875 C 27.457031 135.992188 27.707031 136.734375 27.707031 137.695312 C 27.707031 137.765625 27.707031 137.851562 27.707031 137.96875 L 23.351562 137.96875 C 23.390625 138.609375 23.570312 139.097656 23.898438 139.433594 C 24.21875 139.773438 24.628906 139.941406 25.128906 139.941406 C 25.488281 139.941406 25.796875 139.851562 26.046875 139.667969 C 26.304688 139.472656 26.503906 139.171875 26.652344 138.75 Z M 23.410156 137.148438 L 26.671875 137.148438 C 26.632812 136.65625 26.503906 136.285156 26.300781 136.035156 C 25.988281 135.660156 25.578125 135.46875 25.070312 135.46875 C 24.609375 135.46875 24.230469 135.625 23.917969 135.9375 C 23.613281 136.242188 23.449219 136.640625 23.410156 137.148438 Z M 23.410156 137.148438 "/>
<path style=" stroke:none;fill-rule:nonzero;fill:rgb(0%,0%,0%);fill-opacity:1;" d="M 28.921875 140.625 L 28.921875 134.785156 L 29.820312 134.785156 L 29.820312 135.625 C 30.238281 134.992188 30.855469 134.667969 31.675781 134.667969 C 32.027344 134.667969 32.347656 134.734375 32.632812 134.863281 C 32.933594 134.980469 33.152344 135.148438 33.296875 135.351562 C 33.441406 135.546875 33.542969 135.789062 33.609375 136.074219 C 33.648438 136.257812 33.667969 136.578125 33.667969 137.03125 L 33.667969 140.625 L 32.671875 140.625 L 32.671875 137.070312 C 32.671875 136.671875 32.632812 136.367188 32.554688 136.171875 C 32.476562 135.976562 32.339844 135.820312 32.144531 135.703125 C 31.949219 135.578125 31.722656 135.507812 31.460938 135.507812 C 31.042969 135.507812 30.679688 135.644531 30.367188 135.917969 C 30.066406 136.179688 29.917969 136.6875 29.917969 137.441406 L 29.917969 140.625 Z M 28.921875 140.625 "/>
<path style=" stroke:none;fill-rule:nonzero;fill:rgb(0%,0%,0%);fill-opacity:1;" d="M 39.164062 138.75 L 40.199219 138.867188 C 40.03125 139.46875 39.722656 139.9375 39.28125 140.273438 C 38.851562 140.601562 38.296875 140.761719 37.621094 140.761719 C 36.773438 140.761719 36.097656 140.503906 35.589844 139.980469 C 35.09375 139.449219 34.847656 138.707031 34.847656 137.753906 C 34.847656 136.777344 35.101562 136.023438 35.609375 135.488281 C 36.117188 134.941406 36.773438 134.667969 37.582031 134.667969 C 38.363281 134.667969 38.996094 134.9375 39.476562 135.46875 C 39.972656 135.992188 40.21875 136.734375 40.21875 137.695312 C 40.21875 137.765625 40.21875 137.851562 40.21875 137.96875 L 35.863281 137.96875 C 35.902344 138.609375 36.085938 139.097656 36.410156 139.433594 C 36.734375 139.773438 37.144531 139.941406 37.640625 139.941406 C 38.003906 139.941406 38.3125 139.851562 38.558594 139.667969 C 38.820312 139.472656 39.019531 139.171875 39.164062 138.75 Z M 35.921875 137.148438 L 39.183594 137.148438 C 39.144531 136.65625 39.019531 136.285156 38.8125 136.035156 C 38.5 135.660156 38.089844 135.46875 37.582031 135.46875 C 37.125 135.46875 36.742188 135.625 36.429688 135.9375 C 36.128906 136.242188 35.960938 136.640625 35.921875 137.148438 Z M 35.921875 137.148438 "/>
<path style=" stroke:none;fill-rule:nonzero;fill:rgb(0%,0%,0%);fill-opacity:1;" d="M 41.417969 140.625 L 41.417969 134.785156 L 42.316406 134.785156 L 42.316406 135.683594 C 42.535156 135.269531 42.746094 134.996094 42.941406 134.863281 C 43.136719 134.734375 43.351562 134.667969 43.585938 134.667969 C 43.910156 134.667969 44.25 134.773438 44.601562 134.980469 L 44.25 135.898438 C 44.015625 135.757812 43.773438 135.683594 43.527344 135.683594 C 43.316406 135.683594 43.121094 135.75 42.941406 135.878906 C 42.769531 136.011719 42.648438 136.191406 42.570312 136.425781 C 42.464844 136.777344 42.414062 137.164062 42.414062 137.578125 L 42.414062 140.625 Z M 41.417969 140.625 "/>
<path style=" stroke:none;fill-rule:nonzero;fill:rgb(0%,0%,0%);fill-opacity:1;" d="M 48.992188 139.902344 C 48.625 140.214844 48.273438 140.4375 47.9375 140.566406 C 47.597656 140.695312 47.234375 140.761719 46.84375 140.761719 C 46.203125 140.761719 45.710938 140.605469 45.359375 140.292969 C 45.019531 139.980469 44.851562 139.578125 44.851562 139.082031 C 44.851562 138.796875 44.914062 138.535156 45.046875 138.300781 C 45.175781 138.066406 45.34375 137.882812 45.554688 137.734375 C 45.761719 137.59375 45.996094 137.480469 46.257812 137.402344 C 46.453125 137.363281 46.746094 137.320312 47.136719 137.265625 C 47.941406 137.179688 48.535156 137.0625 48.914062 136.914062 C 48.914062 136.789062 48.914062 136.699219 48.914062 136.660156 C 48.914062 136.257812 48.820312 135.976562 48.640625 135.820312 C 48.378906 135.585938 48 135.46875 47.507812 135.46875 C 47.039062 135.46875 46.691406 135.554688 46.472656 135.722656 C 46.25 135.878906 46.085938 136.167969 45.984375 136.582031 L 45.027344 136.464844 C 45.105469 136.050781 45.242188 135.71875 45.4375 135.46875 C 45.644531 135.210938 45.9375 135.015625 46.316406 134.882812 C 46.707031 134.742188 47.148438 134.667969 47.644531 134.667969 C 48.152344 134.667969 48.554688 134.726562 48.855469 134.84375 C 49.167969 134.960938 49.394531 135.113281 49.539062 135.292969 C 49.695312 135.464844 49.796875 135.683594 49.851562 135.957031 C 49.890625 136.128906 49.910156 136.425781 49.910156 136.855469 L 49.910156 138.183594 C 49.910156 139.097656 49.929688 139.679688 49.96875 139.921875 C 50.007812 140.171875 50.089844 140.40625 50.222656 140.625 L 49.1875 140.625 C 49.082031 140.421875 49.015625 140.175781 48.992188 139.902344 Z M 48.914062 137.695312 C 48.546875 137.84375 48.007812 137.964844 47.292969 138.066406 C 46.886719 138.132812 46.601562 138.203125 46.433594 138.28125 C 46.261719 138.351562 46.132812 138.453125 46.042969 138.59375 C 45.949219 138.742188 45.90625 138.898438 45.90625 139.0625 C 45.90625 139.328125 46.003906 139.546875 46.199219 139.726562 C 46.394531 139.898438 46.6875 139.980469 47.078125 139.980469 C 47.453125 139.980469 47.792969 139.898438 48.09375 139.726562 C 48.390625 139.5625 48.613281 139.332031 48.757812 139.042969 C 48.859375 138.824219 48.914062 138.496094 48.914062 138.066406 Z M 48.914062 137.695312 "/>
<path style=" stroke:none;fill-rule:nonzero;fill:rgb(0%,0%,0%);fill-opacity:1;" d="M 53.609375 139.746094 L 53.746094 140.605469 C 53.457031 140.667969 53.210938 140.703125 53.003906 140.703125 C 52.636719 140.703125 52.359375 140.644531 52.164062 140.527344 C 51.96875 140.410156 51.824219 140.265625 51.734375 140.078125 C 51.65625 139.898438 51.617188 139.511719 51.617188 138.925781 L 51.617188 135.566406 L 50.894531 135.566406 L 50.894531 134.785156 L 51.617188 134.785156 L 51.617188 133.339844 L 52.613281 132.753906 L 52.613281 134.785156 L 53.609375 134.785156 L 53.609375 135.566406 L 52.613281 135.566406 L 52.613281 138.964844 C 52.613281 139.253906 52.625 139.433594 52.652344 139.511719 C 52.691406 139.589844 52.75 139.65625 52.828125 139.707031 C 52.90625 139.761719 53.015625 139.785156 53.160156 139.785156 C 53.277344 139.785156 53.425781 139.773438 53.609375 139.746094 Z M 53.609375 139.746094 "/>
<path style=" stroke:none;fill-rule:nonzero;fill:rgb(0%,0%,0%);fill-opacity:1;" d="M 54.195312 137.714844 C 54.195312 136.636719 54.492188 135.835938 55.09375 135.3125 C 55.601562 134.882812 56.210938 134.667969 56.929688 134.667969 C 57.734375 134.667969 58.394531 134.929688 58.902344 135.449219 C 59.410156 135.972656 59.664062 136.695312 59.664062 137.617188 C 59.664062 138.375 59.546875 138.964844 59.3125 139.394531 C 59.089844 139.824219 58.765625 140.164062 58.335938 140.410156 C 57.90625 140.644531 57.4375 140.761719 56.929688 140.761719 C 56.109375 140.761719 55.445312 140.503906 54.9375 139.980469 C 54.441406 139.449219 54.195312 138.691406 54.195312 137.714844 Z M 55.210938 137.714844 C 55.210938 138.457031 55.371094 139.019531 55.699219 139.394531 C 56.023438 139.761719 56.433594 139.941406 56.929688 139.941406 C 57.421875 139.941406 57.832031 139.761719 58.160156 139.394531 C 58.484375 139.019531 58.648438 138.445312 58.648438 137.675781 C 58.648438 136.960938 58.484375 136.414062 58.160156 136.035156 C 57.832031 135.660156 57.421875 135.46875 56.929688 135.46875 C 56.433594 135.46875 56.023438 135.660156 55.699219 136.035156 C 55.371094 136.402344 55.210938 136.960938 55.210938 137.714844 Z M 55.210938 137.714844 "/>
<path style=" stroke:none;fill-rule:nonzero;fill:rgb(0%,0%,0%);fill-opacity:1;" d="M 60.804688 140.625 L 60.804688 134.785156 L 61.703125 134.785156 L 61.703125 135.683594 C 61.921875 135.269531 62.132812 134.996094 62.328125 134.863281 C 62.523438 134.734375 62.738281 134.667969 62.972656 134.667969 C 63.292969 134.667969 63.636719 134.773438 63.988281 134.980469 L 63.636719 135.898438 C 63.402344 135.757812 63.15625 135.683594 62.914062 135.683594 C 62.703125 135.683594 62.507812 135.75 62.328125 135.878906 C 62.15625 136.011719 62.035156 136.191406 61.957031 136.425781 C 61.847656 136.777344 61.800781 137.164062 61.800781 137.578125 L 61.800781 140.625 Z M 60.804688 140.625 "/>
<path style="fill-rule:nonzero;fill:rgb(69.803922%,85.098039%,100%);fill-opacity:1;stroke-width:1;stroke-linecap:round;stroke-linejoin:round;stroke:rgb(0%,0%,0%);stroke-opacity:1;stroke-miterlimit:10;" d="M 300.2 200.2 L 373.6 200.2 L 373.6 220.2 L 300.2 220.2 Z M 300.2 200.2 " transform="matrix(1.25,0,0,1.25,-335,-207.5)"/>
<path style=" stroke:none;fill-rule:nonzero;fill:rgb(0%,0%,0%);fill-opacity:1;" d="M 57.296875 58.375 L 57.296875 50.328125 L 60.070312 50.328125 C 60.703125 50.328125 61.1875 50.367188 61.515625 50.445312 C 61.96875 50.554688 62.359375 50.738281 62.6875 51.011719 C 63.117188 51.378906 63.433594 51.84375 63.644531 52.398438 C 63.847656 52.945312 63.957031 53.585938 63.957031 54.3125 C 63.957031 54.929688 63.882812 55.464844 63.742188 55.933594 C 63.59375 56.402344 63.414062 56.792969 63.195312 57.105469 C 62.96875 57.417969 62.726562 57.667969 62.453125 57.847656 C 62.1875 58.019531 61.871094 58.148438 61.496094 58.238281 C 61.128906 58.332031 60.699219 58.375 60.207031 58.375 Z M 58.371094 57.417969 L 60.089844 57.417969 C 60.621094 57.417969 61.035156 57.375 61.339844 57.28125 C 61.636719 57.179688 61.875 57.039062 62.0625 56.851562 C 62.304688 56.609375 62.5 56.265625 62.648438 55.835938 C 62.789062 55.40625 62.863281 54.894531 62.863281 54.292969 C 62.863281 53.449219 62.726562 52.804688 62.453125 52.359375 C 62.179688 51.90625 61.835938 51.597656 61.4375 51.441406 C 61.148438 51.324219 60.695312 51.265625 60.070312 51.265625 L 58.371094 51.265625 Z M 58.371094 57.417969 "/>
<path style=" stroke:none;fill-rule:nonzero;fill:rgb(0%,0%,0%);fill-opacity:1;" d="M 65.304688 51.460938 L 65.304688 50.328125 L 66.300781 50.328125 L 66.300781 51.460938 Z M 65.304688 58.375 L 65.304688 52.535156 L 66.300781 52.535156 L 66.300781 58.375 Z M 65.304688 58.375 "/>
<path style=" stroke:none;fill-rule:nonzero;fill:rgb(0%,0%,0%);fill-opacity:1;" d="M 67.414062 56.636719 L 68.390625 56.480469 C 68.4375 56.871094 68.589844 57.171875 68.839844 57.378906 C 69.097656 57.589844 69.449219 57.691406 69.894531 57.691406 C 70.347656 57.691406 70.683594 57.601562 70.910156 57.417969 C 71.128906 57.238281 71.242188 57.023438 71.242188 56.773438 C 71.242188 56.539062 71.144531 56.363281 70.949219 56.246094 C 70.800781 56.15625 70.464844 56.039062 69.933594 55.894531 C 69.199219 55.714844 68.691406 55.558594 68.410156 55.425781 C 68.136719 55.296875 67.925781 55.113281 67.785156 54.878906 C 67.636719 54.644531 67.570312 54.386719 67.570312 54.097656 C 67.570312 53.839844 67.628906 53.601562 67.746094 53.375 C 67.863281 53.15625 68.023438 52.964844 68.234375 52.808594 C 68.390625 52.707031 68.59375 52.613281 68.859375 52.535156 C 69.132812 52.457031 69.414062 52.417969 69.71875 52.417969 C 70.171875 52.417969 70.566406 52.484375 70.910156 52.613281 C 71.261719 52.746094 71.519531 52.921875 71.691406 53.140625 C 71.855469 53.367188 71.972656 53.664062 72.042969 54.039062 L 71.066406 54.175781 C 71.027344 53.878906 70.894531 53.644531 70.675781 53.472656 C 70.464844 53.304688 70.171875 53.21875 69.796875 53.21875 C 69.335938 53.21875 69.015625 53.296875 68.820312 53.453125 C 68.625 53.601562 68.527344 53.773438 68.527344 53.980469 C 68.527344 54.113281 68.566406 54.226562 68.644531 54.3125 C 68.722656 54.429688 68.847656 54.523438 69.035156 54.585938 C 69.121094 54.625 69.410156 54.710938 69.894531 54.839844 C 70.597656 55.023438 71.085938 55.171875 71.359375 55.289062 C 71.640625 55.40625 71.867188 55.582031 72.023438 55.816406 C 72.179688 56.039062 72.257812 56.320312 72.257812 56.65625 C 72.257812 57 72.160156 57.3125 71.964844 57.59375 C 71.769531 57.882812 71.484375 58.109375 71.125 58.277344 C 70.773438 58.433594 70.363281 58.511719 69.894531 58.511719 C 69.136719 58.511719 68.554688 58.355469 68.15625 58.042969 C 67.765625 57.71875 67.515625 57.25 67.414062 56.636719 Z M 67.414062 56.636719 "/>
<path style=" stroke:none;fill-rule:nonzero;fill:rgb(0%,0%,0%);fill-opacity:1;" d="M 77.238281 56.246094 L 78.214844 56.363281 C 78.105469 57.042969 77.832031 57.570312 77.394531 57.945312 C 76.949219 58.328125 76.40625 58.511719 75.773438 58.511719 C 74.976562 58.511719 74.335938 58.253906 73.859375 57.730469 C 73.375 57.210938 73.136719 56.460938 73.136719 55.484375 C 73.136719 54.851562 73.238281 54.292969 73.449219 53.824219 C 73.652344 53.355469 73.964844 53.003906 74.386719 52.769531 C 74.816406 52.535156 75.285156 52.417969 75.792969 52.417969 C 76.417969 52.417969 76.929688 52.585938 77.335938 52.90625 C 77.734375 53.21875 78 53.667969 78.117188 54.253906 L 77.160156 54.410156 C 77.066406 54.019531 76.90625 53.726562 76.671875 53.53125 C 76.4375 53.328125 76.152344 53.21875 75.832031 53.21875 C 75.324219 53.21875 74.914062 53.40625 74.601562 53.765625 C 74.296875 54.117188 74.152344 54.679688 74.152344 55.445312 C 74.152344 56.242188 74.296875 56.8125 74.601562 57.164062 C 74.898438 57.515625 75.289062 57.691406 75.773438 57.691406 C 76.164062 57.691406 76.484375 57.574219 76.75 57.339844 C 77.007812 57.105469 77.167969 56.742188 77.238281 56.246094 Z M 77.238281 56.246094 "/>
<path style=" stroke:none;fill-rule:nonzero;fill:rgb(0%,0%,0%);fill-opacity:1;" d="M 79.035156 58.375 L 79.035156 52.535156 L 79.933594 52.535156 L 79.933594 53.433594 C 80.152344 53.019531 80.363281 52.746094 80.558594 52.613281 C 80.753906 52.484375 80.96875 52.417969 81.203125 52.417969 C 81.523438 52.417969 81.867188 52.523438 82.21875 52.730469 L 81.867188 53.648438 C 81.632812 53.507812 81.386719 53.433594 81.144531 53.433594 C 80.933594 53.433594 80.738281 53.5 80.558594 53.628906 C 80.386719 53.761719 80.265625 53.941406 80.1875 54.175781 C 80.078125 54.527344 80.03125 54.914062 80.03125 55.328125 L 80.03125 58.375 Z M 79.035156 58.375 "/>
<path style=" stroke:none;fill-rule:nonzero;fill:rgb(0%,0%,0%);fill-opacity:1;" d="M 82.800781 51.460938 L 82.800781 50.328125 L 83.796875 50.328125 L 83.796875 51.460938 Z M 82.800781 58.375 L 82.800781 52.535156 L 83.796875 52.535156 L 83.796875 58.375 Z M 82.800781 58.375 "/>
<path style=" stroke:none;fill-rule:nonzero;fill:rgb(0%,0%,0%);fill-opacity:1;" d="M 85.300781 58.375 L 85.300781 52.535156 L 86.179688 52.535156 L 86.179688 53.355469 C 86.359375 53.070312 86.597656 52.84375 86.902344 52.671875 C 87.214844 52.507812 87.566406 52.417969 87.957031 52.417969 C 88.386719 52.417969 88.738281 52.511719 89.011719 52.691406 C 89.285156 52.863281 89.480469 53.109375 89.597656 53.433594 C 90.066406 52.757812 90.660156 52.417969 91.394531 52.417969 C 91.980469 52.417969 92.429688 52.585938 92.742188 52.90625 C 93.054688 53.21875 93.210938 53.707031 93.210938 54.371094 L 93.210938 58.375 L 92.214844 58.375 L 92.214844 54.703125 C 92.214844 54.304688 92.179688 54.015625 92.117188 53.84375 C 92.0625 53.679688 91.949219 53.539062 91.785156 53.433594 C 91.613281 53.316406 91.414062 53.257812 91.179688 53.257812 C 90.773438 53.257812 90.4375 53.394531 90.164062 53.667969 C 89.890625 53.941406 89.753906 54.382812 89.753906 54.976562 L 89.753906 58.375 L 88.757812 58.375 L 88.757812 54.585938 C 88.757812 54.148438 88.679688 53.8125 88.523438 53.589844 C 88.367188 53.371094 88.101562 53.257812 87.742188 53.257812 C 87.453125 53.257812 87.195312 53.335938 86.960938 53.492188 C 86.726562 53.640625 86.554688 53.851562 86.453125 54.136719 C 86.34375 54.410156 86.296875 54.816406 86.296875 55.347656 L 86.296875 58.375 Z M 85.300781 58.375 "/>
<path style=" stroke:none;fill-rule:nonzero;fill:rgb(0%,0%,0%);fill-opacity:1;" d="M 94.671875 51.460938 L 94.671875 50.328125 L 95.667969 50.328125 L 95.667969 51.460938 Z M 94.671875 58.375 L 94.671875 52.535156 L 95.667969 52.535156 L 95.667969 58.375 Z M 94.671875 58.375 "/>
<path style=" stroke:none;fill-rule:nonzero;fill:rgb(0%,0%,0%);fill-opacity:1;" d="M 100.980469 57.652344 C 100.613281 57.964844 100.261719 58.1875 99.925781 58.316406 C 99.582031 58.445312 99.222656 58.511719 98.832031 58.511719 C 98.191406 58.511719 97.699219 58.355469 97.347656 58.042969 C 97.003906 57.730469 96.839844 57.328125 96.839844 56.832031 C 96.839844 56.546875 96.902344 56.285156 97.035156 56.050781 C 97.160156 55.816406 97.332031 55.632812 97.542969 55.484375 C 97.746094 55.34375 97.980469 55.230469 98.246094 55.152344 C 98.441406 55.113281 98.734375 55.070312 99.125 55.015625 C 99.929688 54.929688 100.519531 54.8125 100.902344 54.664062 C 100.902344 54.539062 100.902344 54.449219 100.902344 54.410156 C 100.902344 54.007812 100.808594 53.726562 100.628906 53.570312 C 100.363281 53.335938 99.988281 53.21875 99.496094 53.21875 C 99.027344 53.21875 98.679688 53.304688 98.460938 53.472656 C 98.234375 53.628906 98.074219 53.917969 97.972656 54.332031 L 97.015625 54.214844 C 97.09375 53.800781 97.230469 53.46875 97.425781 53.21875 C 97.628906 52.960938 97.921875 52.765625 98.304688 52.632812 C 98.695312 52.492188 99.132812 52.417969 99.632812 52.417969 C 100.140625 52.417969 100.539062 52.476562 100.84375 52.59375 C 101.15625 52.710938 101.378906 52.863281 101.527344 53.042969 C 101.683594 53.214844 101.785156 53.433594 101.839844 53.707031 C 101.878906 53.878906 101.898438 54.175781 101.898438 54.605469 L 101.898438 55.933594 C 101.898438 56.847656 101.917969 57.429688 101.957031 57.671875 C 101.996094 57.921875 102.078125 58.15625 102.210938 58.375 L 101.175781 58.375 C 101.066406 58.171875 101.003906 57.925781 100.980469 57.652344 Z M 100.902344 55.445312 C 100.535156 55.59375 99.992188 55.714844 99.28125 55.816406 C 98.875 55.882812 98.585938 55.953125 98.421875 56.03125 C 98.25 56.101562 98.117188 56.203125 98.03125 56.34375 C 97.9375 56.492188 97.894531 56.648438 97.894531 56.8125 C 97.894531 57.078125 97.992188 57.296875 98.1875 57.476562 C 98.382812 57.648438 98.675781 57.730469 99.066406 57.730469 C 99.441406 57.730469 99.777344 57.648438 100.082031 57.476562 C 100.378906 57.3125 100.597656 57.082031 100.746094 56.792969 C 100.847656 56.574219 100.902344 56.246094 100.902344 55.816406 Z M 100.902344 55.445312 "/>
<path style=" stroke:none;fill-rule:nonzero;fill:rgb(0%,0%,0%);fill-opacity:1;" d="M 105.597656 57.496094 L 105.734375 58.355469 C 105.445312 58.417969 105.195312 58.453125 104.992188 58.453125 C 104.625 58.453125 104.347656 58.394531 104.152344 58.277344 C 103.957031 58.160156 103.808594 58.015625 103.722656 57.828125 C 103.644531 57.648438 103.605469 57.261719 103.605469 56.675781 L 103.605469 53.316406 L 102.882812 53.316406 L 102.882812 52.535156 L 103.605469 52.535156 L 103.605469 51.089844 L 104.601562 50.503906 L 104.601562 52.535156 L 105.597656 52.535156 L 105.597656 53.316406 L 104.601562 53.316406 L 104.601562 56.714844 C 104.601562 57.003906 104.609375 57.183594 104.640625 57.261719 C 104.679688 57.339844 104.738281 57.40625 104.816406 57.457031 C 104.894531 57.511719 105 57.535156 105.148438 57.535156 C 105.265625 57.535156 105.410156 57.523438 105.597656 57.496094 Z M 105.597656 57.496094 "/>
<path style=" stroke:none;fill-rule:nonzero;fill:rgb(0%,0%,0%);fill-opacity:1;" d="M 106.183594 55.464844 C 106.183594 54.386719 106.480469 53.585938 107.082031 53.0625 C 107.589844 52.632812 108.199219 52.417969 108.917969 52.417969 C 109.722656 52.417969 110.382812 52.679688 110.890625 53.199219 C 111.398438 53.722656 111.652344 54.445312 111.652344 55.367188 C 111.652344 56.125 111.535156 56.714844 111.300781 57.144531 C 111.074219 57.574219 110.753906 57.914062 110.324219 58.160156 C 109.894531 58.394531 109.425781 58.511719 108.917969 58.511719 C 108.097656 58.511719 107.433594 58.253906 106.925781 57.730469 C 106.425781 57.199219 106.183594 56.441406 106.183594 55.464844 Z M 107.199219 55.464844 C 107.199219 56.207031 107.359375 56.769531 107.6875 57.144531 C 108.007812 57.511719 108.417969 57.691406 108.917969 57.691406 C 109.410156 57.691406 109.820312 57.511719 110.148438 57.144531 C 110.46875 56.769531 110.636719 56.195312 110.636719 55.425781 C 110.636719 54.710938 110.46875 54.164062 110.148438 53.785156 C 109.820312 53.410156 109.410156 53.21875 108.917969 53.21875 C 108.417969 53.21875 108.007812 53.410156 107.6875 53.785156 C 107.359375 54.152344 107.199219 54.710938 107.199219 55.464844 Z M 107.199219 55.464844 "/>
<path style=" stroke:none;fill-rule:nonzero;fill:rgb(0%,0%,0%);fill-opacity:1;" d="M 112.792969 58.375 L 112.792969 52.535156 L 113.691406 52.535156 L 113.691406 53.433594 C 113.910156 53.019531 114.121094 52.746094 114.316406 52.613281 C 114.511719 52.484375 114.726562 52.417969 114.960938 52.417969 C 115.28125 52.417969 115.625 52.523438 115.976562 52.730469 L 115.625 53.648438 C 115.390625 53.507812 115.144531 53.433594 114.902344 53.433594 C 114.691406 53.433594 114.496094 53.5 114.316406 53.628906 C 114.144531 53.761719 114.023438 53.941406 113.945312 54.175781 C 113.835938 54.527344 113.789062 54.914062 113.789062 55.328125 L 113.789062 58.375 Z M 112.792969 58.375 "/>
<path style="fill-rule:nonzero;fill:rgb(100%,100%,100%);fill-opacity:1;stroke-width:1;stroke-linecap:round;stroke-linejoin:round;stroke:rgb(0%,0%,0%);stroke-opacity:1;stroke-miterlimit:10;" d="M 340.4 233.1 L 399.2 233.1 L 399.2 253.1 L 340.4 253.1 Z M 340.4 233.1 " transform="matrix(1.25,0,0,1.25,-335,-207.5)"/>
<path style=" stroke:none;fill-rule:nonzero;fill:rgb(0%,0%,0%);fill-opacity:1;" d="M 111.667969 100.75 L 111.667969 92.703125 L 115.242188 92.703125 C 115.953125 92.703125 116.5 92.777344 116.882812 92.917969 C 117.257812 93.0625 117.554688 93.320312 117.78125 93.679688 C 118 94.046875 118.113281 94.453125 118.113281 94.890625 C 118.113281 95.46875 117.921875 95.945312 117.546875 96.335938 C 117.179688 96.726562 116.613281 96.976562 115.847656 97.078125 C 116.121094 97.226562 116.335938 97.359375 116.492188 97.488281 C 116.804688 97.777344 117.097656 98.132812 117.371094 98.5625 L 118.777344 100.75 L 117.429688 100.75 L 116.355469 99.070312 C 116.050781 98.59375 115.796875 98.226562 115.59375 97.976562 C 115.398438 97.71875 115.210938 97.539062 115.046875 97.429688 C 114.890625 97.328125 114.734375 97.253906 114.578125 97.214844 C 114.445312 97.191406 114.246094 97.175781 113.972656 97.175781 L 112.742188 97.175781 L 112.742188 100.75 Z M 112.742188 96.257812 L 115.027344 96.257812 C 115.519531 96.257812 115.90625 96.210938 116.179688 96.101562 C 116.453125 96 116.65625 95.835938 116.804688 95.613281 C 116.945312 95.394531 117.019531 95.15625 117.019531 94.890625 C 117.019531 94.515625 116.871094 94.203125 116.589844 93.953125 C 116.316406 93.710938 115.875 93.582031 115.28125 93.582031 L 112.742188 93.582031 Z M 112.742188 96.257812 "/>
<path style=" stroke:none;fill-rule:nonzero;fill:rgb(0%,0%,0%);fill-opacity:1;" d="M 123.640625 98.875 L 124.675781 98.992188 C 124.503906 99.59375 124.195312 100.0625 123.757812 100.398438 C 123.328125 100.726562 122.769531 100.886719 122.097656 100.886719 C 121.246094 100.886719 120.574219 100.628906 120.066406 100.105469 C 119.566406 99.574219 119.324219 98.832031 119.324219 97.878906 C 119.324219 96.902344 119.578125 96.148438 120.085938 95.613281 C 120.59375 95.066406 121.246094 94.792969 122.058594 94.792969 C 122.839844 94.792969 123.46875 95.0625 123.953125 95.59375 C 124.445312 96.117188 124.695312 96.859375 124.695312 97.820312 C 124.695312 97.890625 124.695312 97.976562 124.695312 98.09375 L 120.339844 98.09375 C 120.378906 98.734375 120.558594 99.222656 120.886719 99.558594 C 121.207031 99.898438 121.617188 100.066406 122.117188 100.066406 C 122.476562 100.066406 122.785156 99.976562 123.035156 99.792969 C 123.292969 99.597656 123.492188 99.296875 123.640625 98.875 Z M 120.398438 97.273438 L 123.660156 97.273438 C 123.621094 96.78125 123.492188 96.410156 123.289062 96.160156 C 122.976562 95.785156 122.566406 95.59375 122.058594 95.59375 C 121.597656 95.59375 121.21875 95.75 120.90625 96.0625 C 120.601562 96.367188 120.4375 96.765625 120.398438 97.273438 Z M 120.398438 97.273438 "/>
<path style=" stroke:none;fill-rule:nonzero;fill:rgb(0%,0%,0%);fill-opacity:1;" d="M 129.722656 100.027344 C 129.355469 100.339844 129.003906 100.5625 128.667969 100.691406 C 128.324219 100.820312 127.964844 100.886719 127.574219 100.886719 C 126.933594 100.886719 126.441406 100.730469 126.089844 100.417969 C 125.746094 100.105469 125.582031 99.703125 125.582031 99.207031 C 125.582031 98.921875 125.644531 98.660156 125.777344 98.425781 C 125.902344 98.191406 126.074219 98.007812 126.285156 97.859375 C 126.488281 97.71875 126.722656 97.605469 126.988281 97.527344 C 127.183594 97.488281 127.476562 97.445312 127.867188 97.390625 C 128.671875 97.304688 129.261719 97.1875 129.644531 97.039062 C 129.644531 96.914062 129.644531 96.824219 129.644531 96.785156 C 129.644531 96.382812 129.550781 96.101562 129.371094 95.945312 C 129.105469 95.710938 128.730469 95.59375 128.238281 95.59375 C 127.769531 95.59375 127.421875 95.679688 127.203125 95.847656 C 126.976562 96.003906 126.816406 96.292969 126.714844 96.707031 L 125.757812 96.589844 C 125.835938 96.175781 125.972656 95.84375 126.167969 95.59375 C 126.371094 95.335938 126.664062 95.140625 127.046875 95.007812 C 127.4375 94.867188 127.875 94.792969 128.375 94.792969 C 128.882812 94.792969 129.28125 94.851562 129.585938 94.96875 C 129.898438 95.085938 130.121094 95.238281 130.269531 95.417969 C 130.425781 95.589844 130.527344 95.808594 130.582031 96.082031 C 130.621094 96.253906 130.640625 96.550781 130.640625 96.980469 L 130.640625 98.308594 C 130.640625 99.222656 130.660156 99.804688 130.699219 100.046875 C 130.738281 100.296875 130.820312 100.53125 130.953125 100.75 L 129.917969 100.75 C 129.808594 100.546875 129.746094 100.300781 129.722656 100.027344 Z M 129.644531 97.820312 C 129.277344 97.96875 128.734375 98.089844 128.023438 98.191406 C 127.617188 98.257812 127.328125 98.328125 127.164062 98.40625 C 126.992188 98.476562 126.859375 98.578125 126.773438 98.71875 C 126.679688 98.867188 126.636719 99.023438 126.636719 99.1875 C 126.636719 99.453125 126.734375 99.671875 126.929688 99.851562 C 127.125 100.023438 127.417969 100.105469 127.808594 100.105469 C 128.183594 100.105469 128.519531 100.023438 128.824219 99.851562 C 129.121094 99.6875 129.339844 99.457031 129.488281 99.167969 C 129.589844 98.949219 129.644531 98.621094 129.644531 98.191406 Z M 129.644531 97.820312 "/>
<path style=" stroke:none;fill-rule:nonzero;fill:rgb(0%,0%,0%);fill-opacity:1;" d="M 132.152344 100.75 L 132.152344 92.703125 L 133.128906 92.703125 L 133.128906 100.75 Z M 132.152344 100.75 "/>
<path style=" stroke:none;fill-rule:nonzero;fill:rgb(0%,0%,0%);fill-opacity:1;" d="M 140.703125 95.417969 C 140.488281 94.402344 140.3125 94.128906 139.921875 94.128906 C 139.589844 94.128906 139.082031 94.246094 138.183594 94.578125 L 138.007812 94.636719 L 138.046875 94.871094 L 138.320312 94.792969 C 138.613281 94.714844 138.789062 94.695312 138.90625 94.695312 C 139.277344 94.695312 139.394531 94.8125 139.609375 95.710938 L 140.019531 97.566406 L 138.789062 99.304688 C 138.476562 99.753906 138.183594 100.046875 138.027344 100.046875 C 137.929688 100.046875 137.792969 100.007812 137.636719 99.910156 C 137.441406 99.8125 137.285156 99.753906 137.148438 99.753906 C 136.855469 99.753906 136.640625 99.988281 136.640625 100.28125 C 136.640625 100.671875 136.933594 100.90625 137.402344 100.90625 C 137.851562 100.90625 138.164062 100.789062 138.828125 99.890625 L 140.136719 98.113281 L 140.566406 99.890625 C 140.761719 100.652344 140.976562 100.90625 141.464844 100.90625 C 142.03125 100.90625 142.421875 100.554688 143.28125 99.207031 L 143.066406 99.070312 C 142.949219 99.226562 142.890625 99.304688 142.753906 99.480469 C 142.402344 99.949219 142.246094 100.085938 142.050781 100.085938 C 141.835938 100.085938 141.699219 99.890625 141.601562 99.480469 L 141.113281 97.46875 C 141.035156 97.097656 140.996094 96.902344 140.996094 96.785156 C 141.660156 95.632812 142.1875 94.96875 142.460938 94.96875 C 142.832031 94.96875 142.96875 95.222656 143.242188 95.222656 C 143.554688 95.222656 143.75 95.007812 143.75 94.695312 C 143.75 94.363281 143.496094 94.128906 143.144531 94.128906 C 142.480469 94.128906 141.933594 94.675781 140.878906 96.277344 Z M 140.703125 95.417969 "/>
<path style="fill-rule:nonzero;fill:rgb(100%,100%,100%);fill-opacity:1;stroke-width:1;stroke-linecap:round;stroke-linejoin:round;stroke:rgb(0%,0%,0%);stroke-opacity:1;stroke-miterlimit:10;" d="M 269.4 233.1 L 328.2 233.1 L 328.2 253.1 L 269.4 253.1 Z M 269.4 233.1 " transform="matrix(1.25,0,0,1.25,-335,-207.5)"/>
<path style=" stroke:none;fill-rule:nonzero;fill:rgb(0%,0%,0%);fill-opacity:1;" d="M 12.023438 100.75 L 12.023438 92.703125 L 17.453125 92.703125 L 17.453125 93.640625 L 13.097656 93.640625 L 13.097656 96.140625 L 16.867188 96.140625 L 16.867188 97.097656 L 13.097656 97.097656 L 13.097656 100.75 Z M 12.023438 100.75 "/>
<path style=" stroke:none;fill-rule:nonzero;fill:rgb(0%,0%,0%);fill-opacity:1;" d="M 22.527344 100.027344 C 22.160156 100.339844 21.808594 100.5625 21.472656 100.691406 C 21.128906 100.820312 20.769531 100.886719 20.378906 100.886719 C 19.738281 100.886719 19.246094 100.730469 18.894531 100.417969 C 18.550781 100.105469 18.386719 99.703125 18.386719 99.207031 C 18.386719 98.921875 18.449219 98.660156 18.582031 98.425781 C 18.707031 98.191406 18.878906 98.007812 19.089844 97.859375 C 19.292969 97.71875 19.527344 97.605469 19.792969 97.527344 C 19.988281 97.488281 20.28125 97.445312 20.671875 97.390625 C 21.476562 97.304688 22.066406 97.1875 22.449219 97.039062 C 22.449219 96.914062 22.449219 96.824219 22.449219 96.785156 C 22.449219 96.382812 22.355469 96.101562 22.175781 95.945312 C 21.910156 95.710938 21.535156 95.59375 21.042969 95.59375 C 20.574219 95.59375 20.226562 95.679688 20.007812 95.847656 C 19.78125 96.003906 19.621094 96.292969 19.519531 96.707031 L 18.5625 96.589844 C 18.640625 96.175781 18.777344 95.84375 18.972656 95.59375 C 19.175781 95.335938 19.46875 95.140625 19.851562 95.007812 C 20.242188 94.867188 20.679688 94.792969 21.179688 94.792969 C 21.6875 94.792969 22.085938 94.851562 22.390625 94.96875 C 22.703125 95.085938 22.925781 95.238281 23.074219 95.417969 C 23.230469 95.589844 23.332031 95.808594 23.386719 96.082031 C 23.425781 96.253906 23.445312 96.550781 23.445312 96.980469 L 23.445312 98.308594 C 23.445312 99.222656 23.464844 99.804688 23.503906 100.046875 C 23.542969 100.296875 23.625 100.53125 23.757812 100.75 L 22.722656 100.75 C 22.613281 100.546875 22.550781 100.300781 22.527344 100.027344 Z M 22.449219 97.820312 C 22.082031 97.96875 21.539062 98.089844 20.828125 98.191406 C 20.421875 98.257812 20.132812 98.328125 19.96875 98.40625 C 19.796875 98.476562 19.664062 98.578125 19.578125 98.71875 C 19.484375 98.867188 19.441406 99.023438 19.441406 99.1875 C 19.441406 99.453125 19.539062 99.671875 19.734375 99.851562 C 19.929688 100.023438 20.222656 100.105469 20.613281 100.105469 C 20.988281 100.105469 21.324219 100.023438 21.628906 99.851562 C 21.925781 99.6875 22.144531 99.457031 22.292969 99.167969 C 22.394531 98.949219 22.449219 98.621094 22.449219 98.191406 Z M 22.449219 97.820312 "/>
<path style=" stroke:none;fill-rule:nonzero;fill:rgb(0%,0%,0%);fill-opacity:1;" d="M 24.976562 100.75 L 24.976562 92.703125 L 25.972656 92.703125 L 25.972656 97.292969 L 28.316406 94.910156 L 29.585938 94.910156 L 27.359375 97.078125 L 29.820312 100.75 L 28.589844 100.75 L 26.675781 97.761719 L 25.972656 98.445312 L 25.972656 100.75 Z M 24.976562 100.75 "/>
<path style=" stroke:none;fill-rule:nonzero;fill:rgb(0%,0%,0%);fill-opacity:1;" d="M 34.585938 98.875 L 35.621094 98.992188 C 35.449219 99.59375 35.140625 100.0625 34.703125 100.398438 C 34.273438 100.726562 33.714844 100.886719 33.042969 100.886719 C 32.191406 100.886719 31.519531 100.628906 31.011719 100.105469 C 30.511719 99.574219 30.269531 98.832031 30.269531 97.878906 C 30.269531 96.902344 30.523438 96.148438 31.03125 95.613281 C 31.539062 95.066406 32.191406 94.792969 33.003906 94.792969 C 33.785156 94.792969 34.414062 95.0625 34.898438 95.59375 C 35.390625 96.117188 35.640625 96.859375 35.640625 97.820312 C 35.640625 97.890625 35.640625 97.976562 35.640625 98.09375 L 31.285156 98.09375 C 31.324219 98.734375 31.503906 99.222656 31.832031 99.558594 C 32.152344 99.898438 32.5625 100.066406 33.0625 100.066406 C 33.421875 100.066406 33.730469 99.976562 33.980469 99.792969 C 34.238281 99.597656 34.4375 99.296875 34.585938 98.875 Z M 31.34375 97.273438 L 34.605469 97.273438 C 34.566406 96.78125 34.4375 96.410156 34.234375 96.160156 C 33.921875 95.785156 33.511719 95.59375 33.003906 95.59375 C 32.542969 95.59375 32.164062 95.75 31.851562 96.0625 C 31.546875 96.367188 31.382812 96.765625 31.34375 97.273438 Z M 31.34375 97.273438 "/>
<path style=" stroke:none;fill-rule:nonzero;fill:rgb(0%,0%,0%);fill-opacity:1;" d="M 50.0625 95.964844 L 46.058594 95.964844 L 46.058594 96.199219 L 46.546875 96.257812 C 47.035156 96.296875 47.25 96.472656 47.25 96.746094 C 47.25 97.078125 47.171875 97.429688 46.859375 98.445312 C 46.527344 99.597656 46.449219 99.773438 46.273438 99.949219 C 45.941406 100.28125 45.375 100.457031 44.710938 100.457031 C 42.757812 100.457031 41.664062 99.304688 41.664062 97.332031 C 41.664062 95.671875 42.289062 93.992188 43.265625 92.761719 C 43.988281 91.84375 45.003906 91.277344 46.195312 91.277344 C 47.113281 91.277344 47.835938 91.589844 48.304688 92.15625 C 48.636719 92.566406 48.832031 93.09375 48.851562 93.738281 L 49.125 93.796875 L 49.867188 90.828125 L 49.632812 90.769531 C 49.378906 91.121094 49.125 91.277344 48.734375 91.277344 C 48.578125 91.277344 48.421875 91.257812 48.070312 91.121094 C 47.425781 90.867188 46.683594 90.769531 46.058594 90.769531 C 44.886719 90.769531 43.734375 91.160156 42.757812 91.84375 C 41.15625 92.957031 40.023438 94.871094 40.023438 96.980469 C 40.023438 97.996094 40.433594 99.167969 41.136719 99.871094 C 41.898438 100.652344 43.03125 101.023438 44.320312 101.023438 C 45.648438 101.023438 46.722656 100.730469 47.875 100.085938 L 48.617188 97.292969 C 48.851562 96.433594 49.105469 96.257812 50.0625 96.199219 Z M 50.0625 95.964844 "/>
<path style=" stroke:none;fill-rule:nonzero;fill:rgb(0%,0%,0%);fill-opacity:1;" d="M 54.601562 90.710938 C 53.214844 91.980469 52.394531 92.761719 51.808594 93.699219 C 51.027344 94.96875 50.695312 96.511719 50.695312 98.054688 C 50.695312 99.96875 51.222656 101.921875 52.179688 103.464844 L 52.453125 103.367188 C 51.90625 101.84375 51.730469 100.925781 51.730469 99.480469 C 51.730469 96.414062 52.511719 93.09375 54.796875 90.945312 Z M 54.601562 90.710938 "/>
<path style=" stroke:none;fill-rule:nonzero;fill:rgb(0%,0%,0%);fill-opacity:1;" d="M 60.769531 94.5 L 60.769531 94.324219 L 56.511719 94.324219 L 56.042969 96.0625 L 56.277344 96.121094 C 56.589844 95.359375 56.863281 95.222656 57.644531 95.222656 L 59.695312 95.222656 L 55.027344 100.808594 L 55.164062 100.945312 C 55.417969 100.75 55.613281 100.671875 55.847656 100.671875 C 56.238281 100.671875 56.707031 100.867188 57.429688 101.296875 C 58.171875 101.765625 58.679688 101.960938 59.109375 101.960938 C 59.949219 101.960938 60.515625 101.433594 60.515625 100.828125 C 60.515625 100.496094 60.300781 100.261719 59.988281 100.261719 C 59.753906 100.261719 59.5 100.515625 59.5 100.789062 C 59.5 100.90625 59.519531 101.023438 59.617188 101.199219 C 59.65625 101.296875 59.695312 101.355469 59.695312 101.433594 C 59.695312 101.550781 59.519531 101.648438 59.285156 101.648438 C 58.914062 101.648438 58.621094 101.472656 58.230469 100.90625 C 57.625 100.007812 57.292969 99.851562 56.433594 99.65625 Z M 60.769531 94.5 "/>
<path style=" stroke:none;fill-rule:nonzero;fill:rgb(0%,0%,0%);fill-opacity:1;" d="M 63.460938 90.789062 C 63.96875 92 64.203125 93.210938 64.203125 94.714844 C 64.203125 96.121094 63.929688 97.859375 63.460938 99.304688 C 62.953125 100.886719 62.40625 101.882812 61.136719 103.230469 L 61.332031 103.445312 C 62.699219 102.273438 63.480469 101.433594 64.066406 100.417969 C 64.808594 99.128906 65.238281 97.703125 65.238281 96.199219 C 65.238281 95.378906 65.140625 94.519531 64.945312 93.679688 C 64.691406 92.566406 64.457031 91.980469 63.753906 90.710938 Z M 63.460938 90.789062 "/>
<path style="fill-rule:nonzero;fill:rgb(100%,100%,100%);fill-opacity:1;stroke-width:1;stroke-linecap:round;stroke-linejoin:round;stroke:rgb(0%,0%,0%);stroke-opacity:1;stroke-miterlimit:10;" d="M 300.2 167.3 L 373.6 167.3 L 373.6 187.3 L 300.2 187.3 Z M 300.2 167.3 " transform="matrix(1.25,0,0,1.25,-335,-207.5)"/>
<path style=" stroke:none;fill-rule:nonzero;fill:rgb(0%,0%,0%);fill-opacity:1;" d="M 53.101562 17.25 L 53.101562 9.203125 L 54.15625 9.203125 L 54.15625 17.25 Z M 53.101562 17.25 "/>
<path style=" stroke:none;fill-rule:nonzero;fill:rgb(0%,0%,0%);fill-opacity:1;" d="M 55.523438 15.511719 L 56.5 15.355469 C 56.550781 15.746094 56.703125 16.046875 56.949219 16.253906 C 57.210938 16.464844 57.5625 16.566406 58.003906 16.566406 C 58.460938 16.566406 58.796875 16.476562 59.019531 16.292969 C 59.242188 16.113281 59.351562 15.898438 59.351562 15.648438 C 59.351562 15.414062 59.253906 15.238281 59.058594 15.121094 C 58.914062 15.03125 58.578125 14.914062 58.042969 14.769531 C 57.3125 14.589844 56.804688 14.433594 56.519531 14.300781 C 56.246094 14.171875 56.039062 13.988281 55.894531 13.753906 C 55.75 13.519531 55.679688 13.261719 55.679688 12.972656 C 55.679688 12.714844 55.738281 12.476562 55.855469 12.25 C 55.972656 12.03125 56.136719 11.839844 56.34375 11.683594 C 56.5 11.582031 56.707031 11.488281 56.96875 11.410156 C 57.242188 11.332031 57.527344 11.292969 57.828125 11.292969 C 58.285156 11.292969 58.679688 11.359375 59.019531 11.488281 C 59.371094 11.621094 59.632812 11.796875 59.800781 12.015625 C 59.96875 12.242188 60.085938 12.539062 60.152344 12.914062 L 59.175781 13.050781 C 59.136719 12.753906 59.007812 12.519531 58.785156 12.347656 C 58.578125 12.179688 58.285156 12.09375 57.90625 12.09375 C 57.449219 12.09375 57.125 12.171875 56.929688 12.328125 C 56.734375 12.476562 56.636719 12.648438 56.636719 12.855469 C 56.636719 12.988281 56.675781 13.101562 56.753906 13.1875 C 56.832031 13.304688 56.960938 13.398438 57.144531 13.460938 C 57.234375 13.5 57.523438 13.585938 58.003906 13.714844 C 58.707031 13.898438 59.195312 14.046875 59.46875 14.164062 C 59.753906 14.28125 59.976562 14.457031 60.132812 14.691406 C 60.289062 14.914062 60.367188 15.195312 60.367188 15.53125 C 60.367188 15.875 60.269531 16.1875 60.074219 16.46875 C 59.878906 16.757812 59.597656 16.984375 59.234375 17.152344 C 58.882812 17.308594 58.472656 17.386719 58.003906 17.386719 C 57.25 17.386719 56.667969 17.230469 56.265625 16.917969 C 55.875 16.59375 55.628906 16.125 55.523438 15.511719 Z M 55.523438 15.511719 "/>
<path style=" stroke:none;fill-rule:nonzero;fill:rgb(0%,0%,0%);fill-opacity:1;" d="M 64.644531 17.25 L 64.644531 11.410156 L 65.542969 11.410156 L 65.542969 12.308594 C 65.765625 11.894531 65.972656 11.621094 66.167969 11.488281 C 66.363281 11.359375 66.578125 11.292969 66.8125 11.292969 C 67.136719 11.292969 67.476562 11.398438 67.828125 11.605469 L 67.476562 12.523438 C 67.242188 12.382812 67 12.308594 66.753906 12.308594 C 66.546875 12.308594 66.351562 12.375 66.167969 12.503906 C 66 12.636719 65.875 12.816406 65.796875 13.050781 C 65.691406 13.402344 65.640625 13.789062 65.640625 14.203125 L 65.640625 17.25 Z M 64.644531 17.25 "/>
<path style=" stroke:none;fill-rule:nonzero;fill:rgb(0%,0%,0%);fill-opacity:1;" d="M 72.394531 15.375 L 73.429688 15.492188 C 73.261719 16.09375 72.953125 16.5625 72.511719 16.898438 C 72.082031 17.226562 71.527344 17.386719 70.851562 17.386719 C 70.003906 17.386719 69.328125 17.128906 68.820312 16.605469 C 68.324219 16.074219 68.078125 15.332031 68.078125 14.378906 C 68.078125 13.402344 68.332031 12.648438 68.839844 12.113281 C 69.347656 11.566406 70.003906 11.292969 70.8125 11.292969 C 71.59375 11.292969 72.226562 11.5625 72.707031 12.09375 C 73.203125 12.617188 73.449219 13.359375 73.449219 14.320312 C 73.449219 14.390625 73.449219 14.476562 73.449219 14.59375 L 69.09375 14.59375 C 69.132812 15.234375 69.316406 15.722656 69.640625 16.058594 C 69.964844 16.398438 70.375 16.566406 70.871094 16.566406 C 71.234375 16.566406 71.542969 16.476562 71.789062 16.292969 C 72.050781 16.097656 72.25 15.796875 72.394531 15.375 Z M 69.152344 13.773438 L 72.414062 13.773438 C 72.375 13.28125 72.25 12.910156 72.042969 12.660156 C 71.730469 12.285156 71.320312 12.09375 70.8125 12.09375 C 70.355469 12.09375 69.972656 12.25 69.660156 12.5625 C 69.359375 12.867188 69.191406 13.265625 69.152344 13.773438 Z M 69.152344 13.773438 "/>
<path style=" stroke:none;fill-rule:nonzero;fill:rgb(0%,0%,0%);fill-opacity:1;" d="M 78.476562 16.527344 C 78.113281 16.839844 77.761719 17.0625 77.421875 17.191406 C 77.082031 17.320312 76.71875 17.386719 76.328125 17.386719 C 75.691406 17.386719 75.195312 17.230469 74.84375 16.917969 C 74.503906 16.605469 74.335938 16.203125 74.335938 15.707031 C 74.335938 15.421875 74.402344 15.160156 74.53125 14.925781 C 74.660156 14.691406 74.832031 14.507812 75.039062 14.359375 C 75.246094 14.21875 75.480469 14.105469 75.742188 14.027344 C 75.9375 13.988281 76.230469 13.945312 76.621094 13.890625 C 77.429688 13.804688 78.019531 13.6875 78.398438 13.539062 C 78.398438 13.414062 78.398438 13.324219 78.398438 13.285156 C 78.398438 12.882812 78.308594 12.601562 78.125 12.445312 C 77.863281 12.210938 77.488281 12.09375 76.992188 12.09375 C 76.523438 12.09375 76.179688 12.179688 75.957031 12.347656 C 75.734375 12.503906 75.574219 12.792969 75.46875 13.207031 L 74.511719 13.089844 C 74.589844 12.675781 74.726562 12.34375 74.921875 12.09375 C 75.128906 11.835938 75.421875 11.640625 75.800781 11.507812 C 76.191406 11.367188 76.632812 11.292969 77.128906 11.292969 C 77.636719 11.292969 78.039062 11.351562 78.339844 11.46875 C 78.652344 11.585938 78.878906 11.738281 79.023438 11.917969 C 79.179688 12.089844 79.285156 12.308594 79.335938 12.582031 C 79.375 12.753906 79.394531 13.050781 79.394531 13.480469 L 79.394531 14.808594 C 79.394531 15.722656 79.414062 16.304688 79.453125 16.546875 C 79.492188 16.796875 79.578125 17.03125 79.707031 17.25 L 78.671875 17.25 C 78.566406 17.046875 78.503906 16.800781 78.476562 16.527344 Z M 78.398438 14.320312 C 78.035156 14.46875 77.492188 14.589844 76.777344 14.691406 C 76.375 14.757812 76.085938 14.828125 75.917969 14.90625 C 75.75 14.976562 75.617188 15.078125 75.527344 15.21875 C 75.4375 15.367188 75.390625 15.523438 75.390625 15.6875 C 75.390625 15.953125 75.488281 16.171875 75.683594 16.351562 C 75.878906 16.523438 76.171875 16.605469 76.5625 16.605469 C 76.941406 16.605469 77.277344 16.523438 77.578125 16.351562 C 77.878906 16.1875 78.097656 15.957031 78.242188 15.667969 C 78.347656 15.449219 78.398438 15.121094 78.398438 14.691406 Z M 78.398438 14.320312 "/>
<path style=" stroke:none;fill-rule:nonzero;fill:rgb(0%,0%,0%);fill-opacity:1;" d="M 80.90625 17.25 L 80.90625 9.203125 L 81.882812 9.203125 L 81.882812 17.25 Z M 80.90625 17.25 "/>
<path style=" stroke:none;fill-rule:nonzero;fill:rgb(0%,0%,0%);fill-opacity:1;" d="M 86.179688 14.339844 C 86.179688 13.261719 86.476562 12.460938 87.078125 11.9375 C 87.585938 11.507812 88.195312 11.292969 88.914062 11.292969 C 89.71875 11.292969 90.378906 11.554688 90.886719 12.074219 C 91.394531 12.597656 91.648438 13.320312 91.648438 14.242188 C 91.648438 15 91.53125 15.589844 91.296875 16.019531 C 91.074219 16.449219 90.75 16.789062 90.320312 17.035156 C 89.890625 17.269531 89.421875 17.386719 88.914062 17.386719 C 88.09375 17.386719 87.429688 17.128906 86.921875 16.605469 C 86.425781 16.074219 86.179688 15.316406 86.179688 14.339844 Z M 87.195312 14.339844 C 87.195312 15.082031 87.355469 15.644531 87.683594 16.019531 C 88.007812 16.386719 88.417969 16.566406 88.914062 16.566406 C 89.40625 16.566406 89.816406 16.386719 90.144531 16.019531 C 90.46875 15.644531 90.632812 15.070312 90.632812 14.300781 C 90.632812 13.585938 90.46875 13.039062 90.144531 12.660156 C 89.816406 12.285156 89.40625 12.09375 88.914062 12.09375 C 88.417969 12.09375 88.007812 12.285156 87.683594 12.660156 C 87.355469 13.027344 87.195312 13.585938 87.195312 14.339844 Z M 87.195312 14.339844 "/>
<path style=" stroke:none;fill-rule:nonzero;fill:rgb(0%,0%,0%);fill-opacity:1;" d="M 92.789062 17.25 L 92.789062 11.410156 L 93.6875 11.410156 L 93.6875 12.308594 C 93.90625 11.894531 94.117188 11.621094 94.3125 11.488281 C 94.507812 11.359375 94.722656 11.292969 94.957031 11.292969 C 95.28125 11.292969 95.621094 11.398438 95.972656 11.605469 L 95.621094 12.523438 C 95.386719 12.382812 95.144531 12.308594 94.898438 12.308594 C 94.6875 12.308594 94.492188 12.375 94.3125 12.503906 C 94.140625 12.636719 94.019531 12.816406 93.941406 13.050781 C 93.835938 13.402344 93.785156 13.789062 93.785156 14.203125 L 93.785156 17.25 Z M 92.789062 17.25 "/>
<path style=" stroke:none;fill-rule:nonzero;fill:rgb(0%,0%,0%);fill-opacity:1;" d="M 99.914062 17.25 L 99.914062 12.191406 L 99.035156 12.191406 L 99.035156 11.410156 L 99.914062 11.410156 L 99.914062 10.804688 C 99.914062 10.40625 99.945312 10.109375 100.011719 9.925781 C 100.113281 9.667969 100.285156 9.457031 100.519531 9.300781 C 100.765625 9.144531 101.105469 9.066406 101.535156 9.066406 C 101.808594 9.066406 102.113281 9.101562 102.453125 9.164062 L 102.296875 10.023438 C 102.101562 9.984375 101.910156 9.964844 101.730469 9.964844 C 101.429688 9.964844 101.214844 10.03125 101.085938 10.160156 C 100.953125 10.292969 100.890625 10.53125 100.890625 10.882812 L 100.890625 11.410156 L 102.042969 11.410156 L 102.042969 12.191406 L 100.890625 12.191406 L 100.890625 17.25 Z M 99.914062 17.25 "/>
<path style=" stroke:none;fill-rule:nonzero;fill:rgb(0%,0%,0%);fill-opacity:1;" d="M 106.613281 16.527344 C 106.246094 16.839844 105.894531 17.0625 105.558594 17.191406 C 105.21875 17.320312 104.855469 17.386719 104.464844 17.386719 C 103.824219 17.386719 103.332031 17.230469 102.980469 16.917969 C 102.640625 16.605469 102.472656 16.203125 102.472656 15.707031 C 102.472656 15.421875 102.535156 15.160156 102.667969 14.925781 C 102.796875 14.691406 102.964844 14.507812 103.175781 14.359375 C 103.382812 14.21875 103.617188 14.105469 103.878906 14.027344 C 104.074219 13.988281 104.367188 13.945312 104.757812 13.890625 C 105.5625 13.804688 106.15625 13.6875 106.535156 13.539062 C 106.535156 13.414062 106.535156 13.324219 106.535156 13.285156 C 106.535156 12.882812 106.441406 12.601562 106.261719 12.445312 C 106 12.210938 105.621094 12.09375 105.128906 12.09375 C 104.660156 12.09375 104.3125 12.179688 104.09375 12.347656 C 103.871094 12.503906 103.707031 12.792969 103.605469 13.207031 L 102.648438 13.089844 C 102.726562 12.675781 102.863281 12.34375 103.058594 12.09375 C 103.265625 11.835938 103.558594 11.640625 103.9375 11.507812 C 104.328125 11.367188 104.769531 11.292969 105.265625 11.292969 C 105.773438 11.292969 106.175781 11.351562 106.476562 11.46875 C 106.789062 11.585938 107.015625 11.738281 107.160156 11.917969 C 107.316406 12.089844 107.417969 12.308594 107.472656 12.582031 C 107.511719 12.753906 107.53125 13.050781 107.53125 13.480469 L 107.53125 14.808594 C 107.53125 15.722656 107.550781 16.304688 107.589844 16.546875 C 107.628906 16.796875 107.710938 17.03125 107.84375 17.25 L 106.808594 17.25 C 106.703125 17.046875 106.636719 16.800781 106.613281 16.527344 Z M 106.535156 14.320312 C 106.167969 14.46875 105.628906 14.589844 104.914062 14.691406 C 104.507812 14.757812 104.222656 14.828125 104.054688 14.90625 C 103.882812 14.976562 103.753906 15.078125 103.664062 15.21875 C 103.570312 15.367188 103.527344 15.523438 103.527344 15.6875 C 103.527344 15.953125 103.625 16.171875 103.820312 16.351562 C 104.015625 16.523438 104.308594 16.605469 104.699219 16.605469 C 105.074219 16.605469 105.414062 16.523438 105.714844 16.351562 C 106.011719 16.1875 106.234375 15.957031 106.378906 15.667969 C 106.480469 15.449219 106.535156 15.121094 106.535156 14.691406 Z M 106.535156 14.320312 "/>
<path style=" stroke:none;fill-rule:nonzero;fill:rgb(0%,0%,0%);fill-opacity:1;" d="M 109.0625 17.25 L 109.0625 9.203125 L 110.058594 9.203125 L 110.058594 13.792969 L 112.402344 11.410156 L 113.671875 11.410156 L 111.445312 13.578125 L 113.90625 17.25 L 112.675781 17.25 L 110.761719 14.261719 L 110.058594 14.945312 L 110.058594 17.25 Z M 109.0625 17.25 "/>
<path style=" stroke:none;fill-rule:nonzero;fill:rgb(0%,0%,0%);fill-opacity:1;" d="M 118.671875 15.375 L 119.707031 15.492188 C 119.535156 16.09375 119.230469 16.5625 118.789062 16.898438 C 118.359375 17.226562 117.804688 17.386719 117.128906 17.386719 C 116.28125 17.386719 115.605469 17.128906 115.097656 16.605469 C 114.601562 16.074219 114.355469 15.332031 114.355469 14.378906 C 114.355469 13.402344 114.609375 12.648438 115.117188 12.113281 C 115.625 11.566406 116.28125 11.292969 117.089844 11.292969 C 117.871094 11.292969 118.5 11.5625 118.984375 12.09375 C 119.476562 12.617188 119.726562 13.359375 119.726562 14.320312 C 119.726562 14.390625 119.726562 14.476562 119.726562 14.59375 L 115.371094 14.59375 C 115.410156 15.234375 115.589844 15.722656 115.917969 16.058594 C 116.242188 16.398438 116.652344 16.566406 117.148438 16.566406 C 117.511719 16.566406 117.816406 16.476562 118.066406 16.292969 C 118.324219 16.097656 118.527344 15.796875 118.671875 15.375 Z M 115.429688 13.773438 L 118.691406 13.773438 C 118.652344 13.28125 118.527344 12.910156 118.320312 12.660156 C 118.007812 12.285156 117.597656 12.09375 117.089844 12.09375 C 116.632812 12.09375 116.25 12.25 115.9375 12.5625 C 115.636719 12.867188 115.46875 13.265625 115.429688 13.773438 Z M 115.429688 13.773438 "/>
<path style="fill:none;stroke-width:1;stroke-linecap:round;stroke-linejoin:round;stroke:rgb(0%,0%,0%);stroke-opacity:1;stroke-miterlimit:10;" d="M 298.8 299.2 L 298.8 291.9 " transform="matrix(1.25,0,0,1.25,-335,-207.5)"/>
<path style="fill:none;stroke-width:1;stroke-linecap:butt;stroke-linejoin:miter;stroke:rgb(0%,0%,0%);stroke-opacity:1;stroke-miterlimit:10;" d="M 298.8 287.9 L 298.8 291.9 M 297.3 291.9 L 298.8 287.9 L 300.3 291.9 " transform="matrix(1.25,0,0,1.25,-335,-207.5)"/>
<path style="fill:none;stroke-width:1;stroke-linecap:round;stroke-linejoin:round;stroke:rgb(0%,0%,0%);stroke-opacity:1;stroke-miterlimit:10;" d="M 298.8 266 L 298.8 259 " transform="matrix(1.25,0,0,1.25,-335,-207.5)"/>
<path style="fill:none;stroke-width:1;stroke-linecap:butt;stroke-linejoin:miter;stroke:rgb(0%,0%,0%);stroke-opacity:1;stroke-miterlimit:10;" d="M 298.8 255 L 298.8 259 M 297.3 259 L 298.8 255 L 300.3 259 " transform="matrix(1.25,0,0,1.25,-335,-207.5)"/>
<path style="fill:none;stroke-width:1;stroke-linecap:round;stroke-linejoin:round;stroke:rgb(0%,0%,0%);stroke-opacity:1;stroke-miterlimit:10;" d="M 359.8 233.1 L 351.06875 224.371875 " transform="matrix(1.25,0,0,1.25,-335,-207.5)"/>
<path style="fill:none;stroke-width:1;stroke-linecap:butt;stroke-linejoin:miter;stroke:rgb(0%,0%,0%);stroke-opacity:1;stroke-miterlimit:10;" d="M 348.24375 221.54375 L 351.06875 224.371875 M 350.0125 225.434375 L 348.24375 221.54375 L 352.13125 223.3125 " transform="matrix(1.25,0,0,1.25,-335,-207.5)"/>
<path style="fill:none;stroke-width:1;stroke-linecap:round;stroke-linejoin:round;stroke:rgb(0%,0%,0%);stroke-opacity:1;stroke-miterlimit:10;" d="M 310.378125 233.1 L 320.85625 224.05625 " transform="matrix(1.25,0,0,1.25,-335,-207.5)"/>
<path style="fill:none;stroke-width:1;stroke-linecap:butt;stroke-linejoin:miter;stroke:rgb(0%,0%,0%);stroke-opacity:1;stroke-miterlimit:10;" d="M 323.88125 221.440625 L 320.85625 224.05625 M 319.875 222.921875 L 323.88125 221.440625 L 321.8375 225.190625 " transform="matrix(1.25,0,0,1.25,-335,-207.5)"/>
<path style="fill:none;stroke-width:1;stroke-linecap:round;stroke-linejoin:round;stroke:rgb(0%,0%,0%);stroke-opacity:1;stroke-miterlimit:10;" d="M 336.9 200.2 L 336.9 193.2 " transform="matrix(1.25,0,0,1.25,-335,-207.5)"/>
<path style="fill:none;stroke-width:1;stroke-linecap:butt;stroke-linejoin:miter;stroke:rgb(0%,0%,0%);stroke-opacity:1;stroke-miterlimit:10;" d="M 336.9 189.2 L 336.9 193.2 M 335.4 193.2 L 336.9 189.2 L 338.4 193.2 " transform="matrix(1.25,0,0,1.25,-335,-207.5)"/>
</g>
</svg>
